<svg width="171" height="17" viewBox="0 0 171 17" fill="none" xmlns="http://www.w3.org/2000/svg">
<path d="M7.08807 1.45455H10.1278V11.5966C10.1278 12.5341 9.91714 13.3485 9.49574 14.0398C9.07907 14.7311 8.49905 15.2637 7.75568 15.6378C7.01231 16.0118 6.1482 16.1989 5.16335 16.1989C4.28741 16.1989 3.49195 16.045 2.77699 15.7372C2.06676 15.4247 1.50331 14.9512 1.08665 14.3168C0.669981 13.6776 0.464015 12.875 0.46875 11.9091H3.52983C3.5393 12.2926 3.61742 12.6217 3.7642 12.8963C3.91572 13.1662 4.12169 13.3745 4.3821 13.5213C4.64725 13.6634 4.95975 13.7344 5.3196 13.7344C5.69839 13.7344 6.01799 13.6539 6.27841 13.4929C6.54356 13.3272 6.74479 13.0857 6.8821 12.7685C7.01941 12.4512 7.08807 12.0606 7.08807 11.5966V1.45455ZM19.6094 11.3551V5.09091H22.6349V16H19.7301V14.0185H19.6165C19.3703 14.6577 18.9607 15.1714 18.3878 15.5597C17.8196 15.9479 17.1259 16.142 16.3068 16.142C15.5777 16.142 14.9361 15.9763 14.3821 15.6449C13.8281 15.3134 13.3949 14.8423 13.0824 14.2315C12.7746 13.6207 12.6184 12.8892 12.6136 12.0369V5.09091H15.6392V11.4972C15.6439 12.1411 15.8168 12.6501 16.1577 13.0241C16.4986 13.3982 16.9555 13.5852 17.5284 13.5852C17.893 13.5852 18.2339 13.5024 18.5511 13.3366C18.8684 13.1662 19.1241 12.9152 19.3182 12.5838C19.517 12.2524 19.6141 11.8428 19.6094 11.3551ZM34.1317 8.2017L31.3619 8.37216C31.3145 8.13542 31.2127 7.92235 31.0565 7.73295C30.9002 7.53883 30.6942 7.38494 30.4386 7.27131C30.1876 7.15294 29.887 7.09375 29.5366 7.09375C29.0678 7.09375 28.6725 7.19318 28.3505 7.39205C28.0285 7.58617 27.8675 7.84659 27.8675 8.1733C27.8675 8.43371 27.9717 8.65388 28.18 8.83381C28.3884 9.01373 28.7459 9.15814 29.2525 9.26705L31.2269 9.66477C32.2875 9.88258 33.0782 10.233 33.5991 10.7159C34.1199 11.1989 34.3803 11.8333 34.3803 12.6193C34.3803 13.3343 34.1696 13.9616 33.7482 14.5014C33.3316 15.0412 32.7586 15.4626 32.0295 15.7656C31.305 16.0639 30.4693 16.2131 29.5224 16.2131C28.0782 16.2131 26.9277 15.9124 26.0707 15.3111C25.2184 14.705 24.7189 13.8812 24.5721 12.8395L27.5479 12.6832C27.6379 13.1236 27.8557 13.4598 28.2013 13.6918C28.547 13.919 28.9897 14.0327 29.5295 14.0327C30.0598 14.0327 30.4859 13.9309 30.8079 13.7273C31.1346 13.5189 31.3003 13.2514 31.305 12.9247C31.3003 12.6501 31.1843 12.4252 30.957 12.25C30.7298 12.0701 30.3794 11.9328 29.9059 11.8381L28.0167 11.4616C26.9513 11.2486 26.1583 10.8793 25.6374 10.3537C25.1213 9.82812 24.8633 9.15814 24.8633 8.34375C24.8633 7.64299 25.0527 7.0393 25.4315 6.53267C25.815 6.02604 26.3524 5.63542 27.0437 5.3608C27.7397 5.08617 28.5541 4.94886 29.4869 4.94886C30.8647 4.94886 31.949 5.24006 32.7397 5.82244C33.5352 6.40483 33.9992 7.19792 34.1317 8.2017ZM42.0881 5.09091V7.36364H35.5185V5.09091H42.0881ZM37.0099 2.47727H40.0355V12.6477C40.0355 12.9271 40.0781 13.1449 40.1634 13.3011C40.2486 13.4527 40.367 13.5592 40.5185 13.6207C40.6747 13.6823 40.8546 13.7131 41.0582 13.7131C41.2003 13.7131 41.3423 13.7012 41.4844 13.6776C41.6264 13.6491 41.7353 13.6278 41.8111 13.6136L42.2869 15.8651C42.1354 15.9124 41.9223 15.9669 41.6477 16.0284C41.3731 16.0947 41.0393 16.1349 40.6463 16.1491C39.9171 16.1776 39.2779 16.0805 38.7287 15.858C38.1842 15.6354 37.7604 15.2898 37.4574 14.821C37.1544 14.3523 37.0052 13.7604 37.0099 13.0455V2.47727ZM46.6229 16H43.3274L48.3487 1.45455H52.3118L57.326 16H54.0305L50.3871 4.77841H50.2734L46.6229 16ZM46.4169 10.2827H54.201V12.6832H46.4169V10.2827ZM62.0455 9.69318V16H59.0199V5.09091H61.9034V7.01562H62.0312C62.2727 6.38116 62.6776 5.87926 63.2457 5.50994C63.8139 5.13589 64.5028 4.94886 65.3125 4.94886C66.0701 4.94886 66.7306 5.11458 67.294 5.44602C67.8575 5.77746 68.2955 6.25095 68.608 6.86648C68.9205 7.47727 69.0767 8.20644 69.0767 9.05398V16H66.0511V9.59375C66.0559 8.92614 65.8854 8.4053 65.5398 8.03125C65.1941 7.65246 64.7183 7.46307 64.1122 7.46307C63.705 7.46307 63.3452 7.55066 63.0327 7.72585C62.7249 7.90104 62.4834 8.15672 62.3082 8.4929C62.1378 8.82434 62.0502 9.22443 62.0455 9.69318ZM76.3903 16.2131C75.2871 16.2131 74.333 15.9787 73.5281 15.5099C72.7279 15.0365 72.11 14.3783 71.6744 13.5355C71.2388 12.688 71.021 11.7055 71.021 10.5881C71.021 9.46117 71.2388 8.47633 71.6744 7.63352C72.11 6.78598 72.7279 6.12784 73.5281 5.65909C74.333 5.18561 75.2871 4.94886 76.3903 4.94886C77.4935 4.94886 78.4452 5.18561 79.2454 5.65909C80.0503 6.12784 80.6706 6.78598 81.1062 7.63352C81.5418 8.47633 81.7596 9.46117 81.7596 10.5881C81.7596 11.7055 81.5418 12.688 81.1062 13.5355C80.6706 14.3783 80.0503 15.0365 79.2454 15.5099C78.4452 15.9787 77.4935 16.2131 76.3903 16.2131ZM76.4045 13.8693C76.9064 13.8693 77.3254 13.7273 77.6616 13.4432C77.9978 13.1544 78.2511 12.7614 78.4215 12.2642C78.5967 11.767 78.6843 11.2012 78.6843 10.5668C78.6843 9.93229 78.5967 9.36648 78.4215 8.86932C78.2511 8.37216 77.9978 7.97917 77.6616 7.69034C77.3254 7.40151 76.9064 7.2571 76.4045 7.2571C75.8978 7.2571 75.4717 7.40151 75.1261 7.69034C74.7852 7.97917 74.5271 8.37216 74.3519 8.86932C74.1815 9.36648 74.0962 9.93229 74.0962 10.5668C74.0962 11.2012 74.1815 11.767 74.3519 12.2642C74.5271 12.7614 74.7852 13.1544 75.1261 13.4432C75.4717 13.7273 75.8978 13.8693 76.4045 13.8693ZM89.5295 5.09091V7.36364H82.9599V5.09091H89.5295ZM84.4513 2.47727H87.4769V12.6477C87.4769 12.9271 87.5195 13.1449 87.6048 13.3011C87.69 13.4527 87.8084 13.5592 87.9599 13.6207C88.1161 13.6823 88.296 13.7131 88.4996 13.7131C88.6417 13.7131 88.7837 13.7012 88.9258 13.6776C89.0678 13.6491 89.1767 13.6278 89.2525 13.6136L89.7283 15.8651C89.5768 15.9124 89.3638 15.9669 89.0891 16.0284C88.8145 16.0947 88.4807 16.1349 88.0877 16.1491C87.3585 16.1776 86.7193 16.0805 86.1701 15.858C85.6256 15.6354 85.2018 15.2898 84.8988 14.821C84.5958 14.3523 84.4466 13.7604 84.4513 13.0455V2.47727ZM94.7603 9.69318V16H91.7347V1.45455H94.6751V7.01562H94.8029C95.0491 6.37169 95.4469 5.86742 95.9961 5.50284C96.5453 5.13352 97.2343 4.94886 98.0629 4.94886C98.8204 4.94886 99.4809 5.11458 100.044 5.44602C100.613 5.77273 101.053 6.24384 101.365 6.85938C101.683 7.47017 101.839 8.2017 101.834 9.05398V16H98.8086V9.59375C98.8133 8.9214 98.6429 8.3982 98.2972 8.02415C97.9563 7.65009 97.4781 7.46307 96.8626 7.46307C96.4506 7.46307 96.0861 7.55066 95.7688 7.72585C95.4563 7.90104 95.2101 8.15672 95.0302 8.4929C94.855 8.82434 94.765 9.22443 94.7603 9.69318ZM109.187 16.2131C108.065 16.2131 107.099 15.9858 106.289 15.5312C105.484 15.072 104.864 14.4233 104.428 13.5852C103.993 12.7424 103.775 11.7457 103.775 10.5952C103.775 9.47301 103.993 8.48816 104.428 7.64062C104.864 6.79309 105.477 6.13258 106.268 5.65909C107.063 5.18561 107.996 4.94886 109.066 4.94886C109.786 4.94886 110.456 5.06487 111.076 5.29688C111.701 5.52415 112.246 5.86742 112.71 6.3267C113.178 6.78598 113.543 7.36364 113.803 8.05966C114.064 8.75095 114.194 9.56061 114.194 10.4886V11.3196H104.982V9.4446H111.346C111.346 9.009 111.251 8.62311 111.062 8.28693C110.872 7.95076 110.61 7.68797 110.273 7.49858C109.942 7.30445 109.556 7.20739 109.116 7.20739C108.656 7.20739 108.249 7.31392 107.894 7.52699C107.544 7.73532 107.269 8.01705 107.07 8.37216C106.871 8.72254 106.77 9.11316 106.765 9.54403V11.3267C106.765 11.8665 106.864 12.3329 107.063 12.7259C107.267 13.1188 107.553 13.4219 107.923 13.6349C108.292 13.848 108.73 13.9545 109.237 13.9545C109.573 13.9545 109.88 13.9072 110.16 13.8125C110.439 13.7178 110.678 13.5758 110.877 13.3864C111.076 13.197 111.228 12.965 111.332 12.6903L114.13 12.875C113.988 13.5473 113.697 14.1345 113.256 14.6364C112.821 15.1335 112.257 15.5218 111.566 15.8011C110.879 16.0758 110.086 16.2131 109.187 16.2131ZM116.168 16V5.09091H119.102V6.99432H119.215C119.414 6.31723 119.748 5.80587 120.217 5.46023C120.685 5.10985 121.225 4.93466 121.836 4.93466C121.987 4.93466 122.151 4.94413 122.326 4.96307C122.501 4.98201 122.655 5.00805 122.788 5.04119V7.72585C122.646 7.68324 122.449 7.64536 122.198 7.61222C121.947 7.57907 121.718 7.5625 121.509 7.5625C121.064 7.5625 120.666 7.65956 120.316 7.85369C119.97 8.04309 119.696 8.30824 119.492 8.64915C119.293 8.99006 119.194 9.38305 119.194 9.82812V16H116.168ZM133.393 1.45455H136.468V10.9006C136.468 11.9612 136.215 12.8892 135.708 13.6847C135.207 14.4801 134.503 15.1004 133.599 15.5455C132.695 15.9858 131.641 16.206 130.439 16.206C129.231 16.206 128.175 15.9858 127.271 15.5455C126.367 15.1004 125.663 14.4801 125.162 13.6847C124.66 12.8892 124.409 11.9612 124.409 10.9006V1.45455H127.484V10.6378C127.484 11.1918 127.605 11.6842 127.846 12.1151C128.092 12.5459 128.438 12.8845 128.883 13.1307C129.328 13.3769 129.847 13.5 130.439 13.5C131.035 13.5 131.554 13.3769 131.994 13.1307C132.439 12.8845 132.782 12.5459 133.024 12.1151C133.27 11.6842 133.393 11.1918 133.393 10.6378V1.45455ZM142.074 1.45455V16H138.999V1.45455H142.074ZM144.604 16V1.45455H147.679V7.8679H147.871L153.105 1.45455H156.792L151.394 7.96733L156.855 16H153.176L149.192 10.0199L147.679 11.8665V16H144.604ZM159.02 16V5.09091H162.045V16H159.02ZM160.54 3.68466C160.09 3.68466 159.704 3.53551 159.382 3.23722C159.065 2.93419 158.906 2.57197 158.906 2.15057C158.906 1.7339 159.065 1.37642 159.382 1.07812C159.704 0.775094 160.09 0.623579 160.54 0.623579C160.99 0.623579 161.373 0.775094 161.69 1.07812C162.012 1.37642 162.173 1.7339 162.173 2.15057C162.173 2.57197 162.012 2.93419 161.69 3.23722C161.373 3.53551 160.99 3.68466 160.54 3.68466ZM170.272 5.09091V7.36364H163.702V5.09091H170.272ZM165.194 2.47727H168.219V12.6477C168.219 12.9271 168.262 13.1449 168.347 13.3011C168.432 13.4527 168.551 13.5592 168.702 13.6207C168.858 13.6823 169.038 13.7131 169.242 13.7131C169.384 13.7131 169.526 13.7012 169.668 13.6776C169.81 13.6491 169.919 13.6278 169.995 13.6136L170.471 15.8651C170.319 15.9124 170.106 15.9669 169.831 16.0284C169.557 16.0947 169.223 16.1349 168.83 16.1491C168.101 16.1776 167.462 16.0805 166.912 15.858C166.368 15.6354 165.944 15.2898 165.641 14.821C165.338 14.3523 165.189 13.7604 165.194 13.0455V2.47727Z" fill="white"/>
</svg>
